<svg width="500" height="500" version="1.0" viewBox="0 0 375 375" xmlns="http://www.w3.org/2000/svg" zoomAndPan="magnify">
 <defs>
  <clipPath id="c5266e34cb">
   <path d="m119.97 127h135v81.539h-135z"/>
  </clipPath>
 </defs>
 <g transform="matrix(2.7237 0 0 3.7704 -324.08 -440.71)" clip-path="url(#c5266e34cb)">
  <path d="m187.14 130.21c5.1719 3.3242 17.062 10.895 17.246 10.473 0.17188-0.40625-5.8945-6.7812-8.9648-9.9688-2.4727-0.19141-5.2852-0.36328-8.2812-0.50391zm36.996 19.098c0.92969 0.0352 1.8711 0.0781 2.8164 0.13281-2.1914-2.2969-15.695-16.262-22.262-17.684-0.60547-0.13281-1.4922-0.26953-2.6133-0.41016 5.4609 4.3906 19.004 15.328 22.059 17.961zm21.855 15.969c0.36719 0.67187 0.625 1.6328 0.59375 3.0312-0.0312 1.4609-0.39453 3.0977-0.82031 4.5391 1.9844-2.3438 3.2422-5.3359 3.7891-6.832-8e-3 -0.0742-0.0117-0.14062-0.0273-0.21484-0.54297-0.23828-1.5977-0.50782-3.5352-0.52344zm-2.2031 0.24219c-0.16016-4e-3 -0.3086-0.0625-0.42969-0.14063-1.5469 0.12891-3.4453 0.37891-5.7656 0.8086-4.4609 0.8164-8.6289 2.6406-12.023 4.6406-4.8672 2.8477-8.1211 5.7188-8.1836 6.3984 0.19531 0.12109 5.0664-0.0391 10.262-0.2461 5.7617-0.23046 11.812-0.73046 13.25-0.95703 0.0273-8e-3 0.0703-0.0117 0.12891-0.0312 0.73437-0.15234 1.4219-0.43359 2.0586-0.80468 0.61719-1.5352 1.6875-4.5117 1.7422-6.9141 0.0625-2.7109-1.0391-2.7539-1.0391-2.7539zm-119.98 2.1914s6.1406 1.582 11.766 3.6211c5.8008 2.0976 11.094 4.6523 11.57 5.4609 0.93359 1.5859-1.4805 2.6016-2.293 2.6367-0.82031 0.0391-18.434 0.39063-18.434-0.15234s1.5117-1.2031 2.832-1.1289c1.3281 0.0781 16.262-0.15234 16.031-0.92968-0.23438-0.77344-11.672-5.8242-15.484-7.0625-3.8086-1.2422-5.9883-2.4453-5.9883-2.4453zm113.61 15.34c1.1992 0 2.2812 0.48437 3.0703 1.2695 0.78515 0.78125 1.2734 1.8711 1.2734 3.0664 0 1.1992-0.48828 2.2774-1.2734 3.0664-0.78907 0.78125-1.8711 1.2617-3.0703 1.2617-1.2031 0-2.293-0.48047-3.0742-1.2617-0.78516-0.78906-1.2734-1.8672-1.2734-3.0664 0-1.1953 0.48828-2.2852 1.2734-3.0664 0.78125-0.78516 1.8711-1.2695 3.0742-1.2695zm-13.184-7.0156c-0.48437 0.0195-0.89453-0.35937-0.92187-0.84375-0.0156-0.48047 0.35546-0.89062 0.83984-0.91406 0.043 0 14.719-0.64844 15.988-1.5469 1.1055-0.78515 1.1797-4.8008 1.1836-4.8086 8e-3 -0.48437 0.41407-0.87109 0.89454-0.86328 0.48437 0.0117 0.87109 0.41016 0.86328 0.89844 0 0.0117-0.0859 4.9023-1.9258 6.2031-1.6914 1.2031-16.883 1.8672-16.922 1.875zm13.547 10.051c-0.39454-0.39453-0.94532-0.64062-1.5547-0.64062-0.60547 0-1.1562 0.24609-1.5586 0.64062-0.39843 0.39844-0.64453 0.94532-0.64453 1.5586 0 0.60547 0.2461 1.1523 0.64453 1.5508 0.40235 0.39453 0.95313 0.64062 1.5586 0.64062 0.60937 0 1.1602-0.24609 1.5547-0.64062 0.39843-0.39844 0.64843-0.94531 0.64843-1.5508 0-0.61328-0.25-1.1602-0.64843-1.5586zm-95.113 2.1133s6.3789-7.293 9.5664-7.9141c3.1953-0.625 55.699-2.0234 63.168 1.0078 7.4648 3.0274 18.359 15.059 17.816 17.543-0.0977 0.44141-0.21485 0.8125-0.33204 1.125l18.293-0.12109c0.36719 0 0.85547-1.2305 1.168-2.457l0.0117-0.043c0.10547-0.41016 0.17969-0.8125 0.21094-1.1758 0.0156-0.23047 0.0234-0.4375 0.0117-0.60547l-6.9961-0.0547c-0.64843 0-10.117-0.52734-10.117-1.1719s9.4688-1.168 10.117-1.168l3.8438 0.0312c0.25782-3.2305 0.97657-13.41 0.50782-22.422-1.7188 3.1133-4.4922 6.6836-8.4297 7.5156-0.0352 4e-3 -0.125 0.0234-0.26172 0.043-1.4922 0.23828-7.6797 0.75-13.512 0.98828-6.3086 0.25-12.32 8e-3 -12.664-1.6133-0.0117-0.0703-0.0234-0.14453-0.0234-0.21875-0.0117-0.3125 0.10547-0.60547 0.30469-0.82422 0.98047-1.7891 4.3164-5.0938 9.0234-7.8516 3.5976-2.1211 8.0273-4.0508 12.789-4.9297 6.1992-1.1406 9.8828-0.94531 12.02-0.45703-0.625-3.6562-1.625-6.5156-3.1875-7.6875-5.5156-4.1289-21.609-5.5781-29.633-4-0.60157 0.1875 4e-3 -0.0781-1.7266 0.60547-1.7461 0.68359-13.023 20.547-14.195 20.547-1.1602 0 4.6719-11.871 5.2969-13.891 0.37109-1.2031 0.96484-2.9453 0.8125-4.375-0.38672-0.1211-0.54297-0.28125-0.54297-0.28125s-0.0742-0.3086-4.2774-1.0117c-4.1992-0.69532-42.082-0.61719-44.73 0.46875-2.6406 1.0898-2.1758 3.1836-1.5547 5.1992 0.625 2.0195 6.4609 13.891 5.2891 13.891-1.1602 0-10.109-17.074-13.066-18.242-2.9531-1.1602-19.484-3.332-19.484-3.332s20.344 0.54297 22.168 0.34766c1.8281-0.19531 3.0312-2.4844 4.3555-2.5586 0.73828-0.043 17.949-4e-3 32.996 0.043-3.582-4.2266-14.605-17.246-15.457-18.555-0.17578-0.28125-0.27344-0.53907-0.31641-0.76954-12.594-0.0273-24.871 0.75391-29.082 3.2539-8.9805 5.3242-16.336 12.883-16.336 12.883s8.0117-12.652 17.969-16.145c9.957-3.4922 55.074-3.7266 66.043-0.38672 10.969 3.3359 21.156 18.242 21.156 18.242l0.22266 0.25c0.875-1.3984 2.4414-3.5352 4.3516-4.4648 2.9531-1.4336 16.996-1.7461 17.691-0.0781 0.69922 1.6719-3.5391 6.8711-7.3477 6.9844-3.8164 0.11718-10.32-0.92188-12.176-0.26172 0.25781 0.0312 0.51953 0.0664 0.77344 0.10547 10.117 1.4336 14.605 3.9805 15.625 7.7031 0.37109 1.3945 1.5586 5.5742 1.9258 11.844 0.50781 8.707 0.39844 19.875 0.34375 23.469 1.0078 0.0156 1.5703 0.66016 1.7734 1.6875 0.082 0.42578 0.0937 0.92188 0.0508 1.4531-0.043 0.48828-0.14063 1.0195-0.27735 1.5508l-0.0117 0.0547c-0.54297 2.0938-1.8359 4.1953-3.4375 4.207h-0.082c-0.12109 1.6055-0.40234 4.3476-0.89062 4.7266-0.125 0.0977-0.81641 0.17187-1.875 0.22656h-4e-3c-2.9531 0.16016-8.7773 0.1836-13.203 0.16406-31.648 0.36719-109.39 1.1914-111.88 0.38672-2.3984-0.76953 69.988-1.8203 103.77-2.2656-4e-3 -0.0742-4e-3 -0.14063 8e-3 -0.21485 0.10156-0.70312-0.0586-2.4609-0.1836-3.6289-13.875 0.0703-56.07 0.25781-101.2 0.39844v0.0117c-2.7227 0.20313-5.6289 0.30079-5.6602-0.19531-0.0273-0.51953 3.0664-1.0859 5.832-1.7695 52.086-0.54297 99.16-1.168 99.613-1.8867 0.23437-0.3789-0.23047-1.2773-1.125-2.4375-15.344-0.23828-70.938-1.4492-73.438-2.5195 0 0 53.07-1.0156 70.125-1.125-1.1328-1.125-2.375-2.2734-3.5977-3.3281-16.66-0.0664-64.965-1.3516-66.445-1.9922-1.457-0.63281 46.734-0.1836 63.691-0.25-1.457-1.0977-2.7226-1.9024-3.5273-2.1562-3.418-1.0859-58.102-2.7148-60.129-1.9414-2.0195 0.77735-7.2344 6.4453-7.7773 6.1328l-0.54688-0.3125" fill="#ff3131" fill-rule="evenodd"/>
 </g>
</svg>
